#!OML:ASF X:\für Bonn\!DataBase\2005_08_11_Bastian_Final\c3d\Bastian.ASF
:FULLY-SPECIFIED
:DEGREES
238
root -21.5062 17.6062 -0.0161258 103.309 -83.242 -107.484
lowerback 5.11618 -1.02573 0.0926919
upperback 3.95465 -1.45691 0.209793
thorax 1.19991 -0.769989 0.220015
lowerneck -4.05789 -2.53757 -2.50089
upperneck -14.2207 -2.85117 10.404
head -3.34023 -1.93162 3.65349
rclavicle -5.26779e-015 -8.74653e-015
rhumerus -34.0595 63.2392 -84.0887
rradius 87.9557
rwrist 19.6372
rhand -20.134 3.9012
rfingers 7.12502
rthumb 6.21046 -25.9878
lclavicle -5.26779e-015 -8.74653e-015
lhumerus -25.661 -9.72053 85.1794
lradius 27.8203
lwrist 18.6111
lhand -12.6486 -8.21205
lfingers 7.12502
lthumb 13.4319 21.3349
rfemur 1.16131 9.37949 23.1899
rtibia 37.393
rfoot -15.704 4.78946
rtoes -15.271
lfemur -8.82275 6.06057 -14.1101
ltibia 28.4248
lfoot -6.95137 -12.0259
ltoes -2.16805
239
root -21.4943 17.6064 -0.0359699 97.5099 -83.5209 -101.67
lowerback 5.17371 -1.04889 0.0237174
upperback 3.95382 -1.48939 0.170914
thorax 1.16784 -0.786921 0.22133
lowerneck -4.1808 -2.4337 -2.5195
upperneck -14.1979 -2.72983 10.1499
head -3.32688 -1.85374 3.57471
rclavicle 2.16675e-014 3.02153e-014
rhumerus -38.1314 59.9891 -87.99
rradius 85.4996
rwrist 20.4058
rhand -20.5845 3.89621
rfingers 7.12502
rthumb 5.77549 -26.0051
lclavicle 2.16675e-014 3.02153e-014
lhumerus -25.6615 -9.9846 85.247
lradius 28.3359
lwrist 18.787
lhand -12.6533 -8.40787
lfingers 7.12502
lthumb 13.4274 21.1394
rfemur 1.17446 9.64667 23.2091
rtibia 37.1267
rfoot -15.9189 4.84749
rtoes -14.5101
lfemur -9.00068 5.80048 -14.2063
ltibia 28.4204
lfoot -6.72945 -12.4483
ltoes -2.19008
240
root -21.4832 17.6066 -0.0578151 90.5812 -83.7162 -94.7289
lowerback 5.24289 -1.09284 -0.00456576
upperback 3.94893 -1.54795 0.131672
thorax 1.12423 -0.816007 0.200952
lowerneck -4.29624 -2.30819 -2.57
upperneck -14.1849 -2.58077 9.86117
head -3.31942 -1.75944 3.49081
rclavicle -3.8763e-015 6.36111e-015
rhumerus -41.1899 56.5208 -90.8507
rradius 83.0582
rwrist 21.1314
rhand -20.9306 3.74022
rfingers 7.12502
rthumb 5.44139 -26.1699
lclavicle -3.8763e-015 6.36111e-015
lhumerus -25.6803 -10.1586 85.3061
lradius 28.8586
lwrist 18.9745
lhand -12.6304 -8.61366
lfingers 7.12502
lthumb 13.4494 20.9321
rfemur 1.2319 9.91625 23.2674
rtibia 36.8295
rfoot -16.1387 4.88109
rtoes -13.8327
lfemur -9.18438 5.52944 -14.2748
ltibia 28.421
lfoot -6.49155 -12.9315
ltoes -2.17231
241
root -21.472 17.6073 -0.0810002 82.9665 -83.8267 -87.0635
lowerback 5.26547 -1.14331 -0.0067824
upperback 3.94262 -1.61376 0.076078
thorax 1.10388 -0.847792 0.148564
lowerneck -4.49565 -2.17365 -2.68478
upperneck -13.7976 -2.47609 9.33989
head -3.58518 -1.6415 3.69704
rclavicle -1.88845e-014 -1.43125e-014
rhumerus -43.3482 52.9133 -92.8456
rradius 80.5304
rwrist 21.8354
rhand -21.2396 3.47416
rfingers 7.12502
rthumb 5.14298 -26.4434
lclavicle -1.88845e-014 -1.43125e-014
lhumerus -25.6907 -10.3562 85.3595
lradius 29.3771
lwrist 19.2399
lhand -12.6217 -8.84435
lfingers 7.12502
lthumb 13.4579 20.7009
rfemur 1.25957 10.1914 23.3087
rtibia 36.5189
rfoot -16.332 4.91989
rtoes -13.1705
lfemur -9.42359 5.26152 -14.3653
ltibia 28.4224
lfoot -6.24373 -13.4603
ltoes -2.33612
242
root -21.4598 17.6072 -0.104009 74.9387 -83.8154 -78.9763
lowerback 5.29334 -1.20255 -0.007701
upperback 3.93153 -1.69117 0.0361997
thorax 1.076 -0.885497 0.112316
lowerneck -4.56678 -2.00339 -2.93444
upperneck -13.81 -2.25041 9.15579
head -3.59196 -1.50579 3.67562
rclavicle 1.2921e-015 -8.74653e-015
rhumerus -44.8952 49.1687 -94.2052
rradius 77.9116
rwrist 22.4973
rhand -21.4909 3.17218
rfingers 7.12502
rthumb 4.90033 -26.7512
lclavicle 1.2921e-015 -8.74653e-015
lhumerus -25.7113 -10.4823 85.4331
lradius 29.8877
lwrist 19.4705
lhand -12.6301 -9.04074
lfingers 7.12502
lthumb 13.4497 20.505
rfemur 1.28195 10.4773 23.3537
rtibia 36.1995
rfoot -16.49 4.9787
rtoes -12.4443
lfemur -9.67624 4.92772 -14.462
ltibia 28.4252
lfoot -5.98214 -13.9329
ltoes -2.27334
243
root -21.4471 17.6072 -0.127703 67.1042 -83.6597 -71.0724
lowerback 5.31373 -1.25138 0.0401915
upperback 3.91745 -1.75264 -0.00862134
thorax 1.04749 -0.914143 0.0429581
lowerneck -4.49845 -1.81013 -3.23762
upperneck -14.2387 -1.92899 9.26317
head -3.34635 -1.36575 3.41049
rclavicle 8.94531e-016 -3.02153e-014
rhumerus -46.0178 45.1801 -94.9883
rradius 75.3307
rwrist 23.2483
rhand -21.6097 3.00049
rfingers 7.12502
rthumb 4.78568 -26.9255
lclavicle 8.94531e-016 -3.02153e-014
lhumerus -25.7389 -10.7119 85.5323
lradius 30.4074
lwrist 19.8378
lhand -12.6391 -9.21283
lfingers 7.12502
lthumb 13.441 20.3335
rfemur 1.30731 10.8181 23.4288
rtibia 35.8772
rfoot -16.6575 5.01479
rtoes -11.7232
lfemur -9.94124 4.59326 -14.5345
ltibia 28.4181
lfoot -5.71256 -14.4278
ltoes -2.40284
244
root -21.4341 17.6073 -0.152497 59.3336 -83.4163 -63.2517
lowerback 5.33002 -1.30439 0.0368932
upperback 3.92891 -1.8225 -0.0603509
thorax 1.04872 -0.948288 -0.00497687
lowerneck -4.57466 -1.59849 -3.51108
upperneck -14.2783 -1.64694 9.08114
head -3.36397 -1.20124 3.39731
rclavicle -8.05078e-015 7.15625e-015
rhumerus -46.8561 41.1338 -95.3803
rradius 72.7904
rwrist 23.9089
rhand -21.7364 2.80797
rfingers 7.12502
rthumb 4.66328 -27.1207
lclavicle -8.05078e-015 7.15625e-015
lhumerus -25.778 -10.8733 85.6257
lradius 30.9651
lwrist 20.1823
lhand -12.6661 -9.36959
lfingers 7.12502
lthumb 13.4151 20.1785
rfemur 1.35486 11.1712 23.4688
rtibia 35.5584
rfoot -16.7969 5.07523
rtoes -11.0855
lfemur -10.181 4.20309 -14.6542
ltibia 28.3965
lfoot -5.41524 -14.8871
ltoes -2.26965
